<?xml version="1.0" encoding="utf-8"?>
<!DOCTYPE svg PUBLIC "-//W3C//DTD SVG 1.0//EN" "http://www.w3.org/TR/2001/REC-SVG-20010904/DTD/svg10.dtd">
<svg version="1.0" xmlns="http://www.w3.org/2000/svg" width="138px" height="80px" viewBox="0 0 138 80" preserveAspectRatio="xMidYMid meet">
 <g fill="#e92728">
  <path d="M17.5 75.1 c-10.8 -2.8 -16.5 -10.2 -16.5 -21.7 0 -5.3 0.5 -7.6 2.4 -10.9 3.6 -6 9.7 -9.8 16.8 -10.3 6.9 -0.5 7.6 0.4 5.6 7.4 -1.2 4.3 -1.7 4.9 -4.8 5.5 -4.8 1 -8.4 5.3 -7.6 9.3 1 5 3.3 7.5 7.4 8.2 3.6 0.6 3.8 0.8 5.1 6.1 0.7 3 1.1 5.7 0.9 5.9 -1 0.9 -6.5 1.2 -9.3 0.5z"/>
  <path d="M119.6 74 c-2.6 -1 -5.6 -2.6 -6.6 -3.5 -1.7 -1.6 -1.9 -1.5 -2.2 0.7 -0.3 2.1 -0.9 2.3 -6.5 2.6 l-6.3 0.3 0 -20.6 0 -20.5 10.3 0 c5.6 0 11.9 0.5 13.9 1 4.4 1.3 9.3 5.2 11.3 9.1 2.1 4 1.9 11.7 -0.5 16.2 -2.1 3.9 -2 4.3 1.1 2.7 2.4 -1.3 2.4 -1.2 -0.6 5.7 -3.9 8.8 -5.5 9.6 -13.9 6.3z m2 -20.1 c1.7 -1.9 1.7 -2.3 0.3 -4.7 -1.3 -2.4 -2.1 -2.7 -6.4 -2.7 l-5 0 -0.3 4.8 -0.3 4.7 4.9 0 c3.7 0 5.4 -0.5 6.8 -2.1z"/>
  <path d="M66.4 72.7 c-0.2 -0.7 -0.3 -9.8 -0.2 -20.2 l0.3 -19 6.3 -0.3 6.2 -0.3 0 20.6 0 20.5 -6 0 c-4 0 -6.2 -0.4 -6.6 -1.3z"/>
  <path d="M82.2 53.8 l0.3 -20.3 6 0 6 0 0.3 20.3 0.2 20.2 -6.5 0 -6.5 0 0.2 -20.2z"/>
 </g>
 <g fill="#2b3781">
  <path d="M34.3 74.3 c-2.4 -0.2 -4.3 -0.7 -4.3 -1.1 0 -0.4 0.7 -4.7 1.6 -9.7 2 -11.2 2.2 -25.3 0.5 -32.5 -1.5 -6.1 -7.8 -20.4 -11.1 -25 -1.2 -1.7 -1.6 -3 -1 -3 2.2 0 11.6 10 15.3 16.2 3.7 6.2 9.7 22.9 9.7 26.8 0 1.1 0.6 2 1.4 2 0.9 0 2 -2.5 3.1 -7.6 2.4 -10.7 9.5 -24.5 16.5 -31.6 5.7 -6 9.6 -8 6.8 -3.5 -11.6 17.9 -15.1 35.3 -11.4 56.2 2.4 13.4 2.7 12.6 -4.6 12.3 l-6.3 -0.3 -0.1 -5.5 c-0.1 -3 -0.2 -6 -0.3 -6.6 0 -0.6 -1.6 -1.1 -3.3 -1 l-3.3 0.1 -0.3 6.5 c-0.3 6 -1.3 8.2 -3.7 7.8 -0.5 -0.1 -2.9 -0.3 -5.2 -0.5z"/>
  <path d="M42.7 28.2 c-1 -1 -1.7 -2.8 -1.7 -3.9 0 -1.2 -0.5 -2.3 -1.2 -2.5 -0.6 -0.2 -0.8 -1 -0.4 -1.6 0.4 -0.7 3.2 -1.2 7.1 -1.2 l6.4 0 -0.1 3.3 c-0.1 6.8 -6.1 10.3 -10.1 5.9z"/>
 </g>
 <g fill="#a88768">
  <path d="M86.3 33.3 c1.5 -0.2 3.9 -0.2 5.5 0 1.5 0.2 0.2 0.4 -2.8 0.4 -3 0 -4.3 -0.2 -2.7 -0.4z"/>
  <path d="M103.3 33.3 c3.1 -0.2 8.3 -0.2 11.5 0 3.1 0.2 0.5 0.3 -5.8 0.3 -6.3 0 -8.9 -0.1 -5.7 -0.3z"/>
  <path d="M39.6 21.7 c-2.1 -1.4 3.3 -4.7 7.9 -4.7 4 0 5.5 1.1 5.5 4 0 1.1 -11.9 1.7 -13.4 0.7z"/>
 </g>
 <g fill="#775946">
 </g>
<g>
   <text fill="#364186" font-family="Arial" x="73.07849%" y="20.17514%" text-anchor="middle" dominant-baseline="central" font-size="17.15943">2025</text>
</g>
</svg>